<svg xmlns="http://www.w3.org/2000/svg" viewBox="0 0 64 64"><path fill="#ff3333" d="M58.7 48.2h-6.3v-6.5l5.5-5.5c.2-.2.2-.5 0-.7L47.4 25.1c-.2-.2-.5-.2-.7 0l-5.5 5.5h-6.5v-6.5l5.5-5.5c.2-.2.2-.5 0-.7L29.7 7.4c-.2-.2-.5-.2-.7 0l-5.5 5.5h-6.5v-6.3c0-.3-.2-.5-.5-.5H5.3c-.3 0-.5.2-.5.5v11.2c0 .3.2.5.5.5h11.2c.3 0 .5-.2.5-.5v-4.4h6.5l5.5-5.5 10.5 10.5-5.5 5.5v6.5h-6.5l-5.5-5.5-10.5 10.5 5.5 5.5v6.5H5.8c-.3 0-.5.2-.5.5v11.2c0 .3.2.5.5.5h11.2c.3 0 .5-.2.5-.5v-4.4h6.5l5.5-5.5 10.5 10.5-5.5 5.5v6.5h-4.4c-.3 0-.5.2-.5.5v11.2c0 .3.2.5.5.5h11.2c.3 0 .5-.2.5-.5V58.7c0-.3-.2-.5-.5-.5h-6.3v-6.5l5.5-5.5c.2-.2.2-.5 0-.7L29.7 35.1c-.2-.2-.5-.2-.7 0l-5.5 5.5h-6.5v-6.5l5.5-5.5 10.5 10.5-5.5 5.5v6.5h-4.4c-.3 0-.5.2-.5.5v11.2c0 .3.2.5.5.5h11.2c.3 0 .5-.2.5-.5V58.7c0-.3-.2-.5-.5-.5h-6.3v-6.5l5.5-5.5c.2-.2.2-.5 0-.7L23.7 35.1c-.2-.2-.5-.2-.7 0l-5.5 5.5h-6.5v-6.5l5.5-5.5 10.5 10.5-5.5 5.5v6.5H5.8c-.3 0-.5.2-.5.5v11.2c0 .3.2.5.5.5h11.2c.3 0 .5-.2.5-.5v-4.4h6.5l5.5-5.5 10.5 10.5-5.5 5.5v6.5h-4.4c-.3 0-.5.2-.5.5v11.2c0 .3.2.5.5.5h11.2c.3 0 .5-.2.5-.5V58.7c0-.3-.2-.5-.5-.5z"/></svg> 