<svg width="35" height="33" viewBox="0 0 35 33" fill="none" xmlns="http://www.w3.org/2000/svg">
<path d="M32.9582 1L19.8241 10.7183L22.2665 4.99099L32.9582 1Z" fill="#E17726" stroke="#E17726" stroke-width="0.25" stroke-linecap="round" stroke-linejoin="round"/>
<path d="M2.65601 1L15.6732 10.809L13.3477 4.99098L2.65601 1Z" fill="#E27625" stroke="#E27625" stroke-width="0.25" stroke-linecap="round" stroke-linejoin="round"/>
<path d="M28.2891 23.5334L24.7859 28.8961L32.2695 30.9312L34.3965 23.6501L28.2891 23.5334Z" fill="#E27625" stroke="#E27625" stroke-width="0.25" stroke-linecap="round" stroke-linejoin="round"/>
<path d="M1.2207 23.6501L3.33603 30.9312L10.8197 28.8961L7.32821 23.5334L1.2207 23.6501Z" fill="#E27625" stroke="#E27625" stroke-width="0.25" stroke-linecap="round" stroke-linejoin="round"/>
<path d="M10.4021 14.5149L8.30225 17.6507L15.7024 17.9899L15.4466 10.0146L10.4021 14.5149Z" fill="#E27625" stroke="#E27625" stroke-width="0.25" stroke-linecap="round" stroke-linejoin="round"/>
<path d="M25.2075 14.515L20.0795 9.92383L19.8242 17.9899L27.2243 17.6507L25.2075 14.515Z" fill="#E27625" stroke="#E27625" stroke-width="0.25" stroke-linecap="round" stroke-linejoin="round"/>
<path d="M10.8198 28.8963L15.2563 26.7445L11.4346 23.7012L10.8198 28.8963Z" fill="#E27625" stroke="#E27625" stroke-width="0.25" stroke-linecap="round" stroke-linejoin="round"/>
<path d="M20.3528 26.7445L24.7855 28.8963L24.1747 23.7012L20.3528 26.7445Z" fill="#E27625" stroke="#E27625" stroke-width="0.25" stroke-linecap="round" stroke-linejoin="round"/>
<path d="M24.7855 28.8958L20.3528 26.7441L20.7165 29.6707L20.6735 30.8143L24.7855 28.8958Z" fill="#D5BFB2" stroke="#D5BFB2" stroke-width="0.25" stroke-linecap="round" stroke-linejoin="round"/>
<path d="M10.8198 28.8958L14.9318 30.8143L14.8967 29.6707L15.2563 26.7441L10.8198 28.8958Z" fill="#D5BFB2" stroke="#D5BFB2" stroke-width="0.25" stroke-linecap="round" stroke-linejoin="round"/>
<path d="M14.9905 21.7852L11.3086 20.6999L13.8519 19.4878L14.9905 21.7852Z" fill="#233447" stroke="#233447" stroke-width="0.25" stroke-linecap="round" stroke-linejoin="round"/>
<path d="M20.6172 21.7852L21.7557 19.4878L24.3028 20.6999L20.6172 21.7852Z" fill="#233447" stroke="#233447" stroke-width="0.25" stroke-linecap="round" stroke-linejoin="round"/>
<path d="M10.8197 28.8961L11.4584 23.5334L7.32812 23.6501L10.8197 28.8961Z" fill="#CC6228" stroke="#CC6228" stroke-width="0.25" stroke-linecap="round" stroke-linejoin="round"/>
<path d="M24.1523 23.5334L24.7856 28.8961L28.2891 23.6501L24.1523 23.5334Z" fill="#CC6228" stroke="#CC6228" stroke-width="0.25" stroke-linecap="round" stroke-linejoin="round"/>
<path d="M27.2246 17.6504L19.8245 17.9896L20.6177 21.7854L21.7562 19.488L24.3033 20.7001L27.2246 17.6504Z" fill="#CC6228" stroke="#CC6228" stroke-width="0.25" stroke-linecap="round" stroke-linejoin="round"/>
<path d="M11.3093 20.7001L13.8525 19.488L14.991 21.7854L15.7028 17.9896L8.30273 17.6504L11.3093 20.7001Z" fill="#CC6228" stroke="#CC6228" stroke-width="0.25" stroke-linecap="round" stroke-linejoin="round"/>
<path d="M8.30225 17.6504L11.4346 23.7011L11.3086 20.7001L8.30225 17.6504Z" fill="#E27525" stroke="#E27525" stroke-width="0.25" stroke-linecap="round" stroke-linejoin="round"/>
<path d="M24.3028 20.7001L24.1729 23.7011L27.2243 17.6504L24.3028 20.7001Z" fill="#E27525" stroke="#E27525" stroke-width="0.25" stroke-linecap="round" stroke-linejoin="round"/>
<path d="M15.7024 17.9897L14.9907 21.7855L15.8892 26.2858L16.1835 20.3611L15.7024 17.9897Z" fill="#E27525" stroke="#E27525" stroke-width="0.25" stroke-linecap="round" stroke-linejoin="round"/>
<path d="M19.8242 17.9897L19.3508 20.3528L19.6373 26.2858L20.5173 21.7855L19.8242 17.9897Z" fill="#E27525" stroke="#E27525" stroke-width="0.25" stroke-linecap="round" stroke-linejoin="round"/>
<path d="M20.5177 21.7852L19.6377 26.2856L20.3533 26.7444L24.1752 23.7011L24.3051 20.7001L20.5177 21.7852Z" fill="#F5841F" stroke="#F5841F" stroke-width="0.25" stroke-linecap="round" stroke-linejoin="round"/>
<path d="M11.3086 20.7001L11.4346 23.7011L15.2565 26.7444L15.8891 26.2856L14.9905 21.7852L11.3086 20.7001Z" fill="#F5841F" stroke="#F5841F" stroke-width="0.25" stroke-linecap="round" stroke-linejoin="round"/>
<path d="M20.6738 30.8146L20.7167 29.671L20.3725 29.378H15.2378L14.8967 29.671L14.9318 30.8146L10.8198 28.8961L12.2914 30.1082L15.1939 32.0851H20.4125L23.3189 30.1082L24.7855 28.8961L20.6738 30.8146Z" fill="#C0AC9D" stroke="#C0AC9D" stroke-width="0.25" stroke-linecap="round" stroke-linejoin="round"/>
<path d="M20.3528 26.7445L19.6372 26.2857H15.8891L15.2563 26.7445L14.8967 29.6711L15.2378 29.3781H20.3725L20.7167 29.6711L20.3528 26.7445Z" fill="#161616" stroke="#161616" stroke-width="0.25" stroke-linecap="round" stroke-linejoin="round"/>
<path d="M33.7437 11.3322L34.8198 5.95725L32.9582 1L20.3528 10.3876L25.2075 14.5149L32.0562 16.5417L33.5747 14.7485L32.9005 14.2647L33.9688 13.2972L33.1584 12.6801L34.2267 11.8661L33.7437 11.3322Z" fill="#763E1A" stroke="#763E1A" stroke-width="0.25" stroke-linecap="round" stroke-linejoin="round"/>
<path d="M1 5.95725L2.08415 11.3322L1.58572 11.8661L2.66201 12.6801L1.85152 13.2972L2.91994 14.2647L2.24577 14.7485L3.76429 16.5417L10.613 14.5149L15.4677 10.3876L2.86234 1L1 5.95725Z" fill="#763E1A" stroke="#763E1A" stroke-width="0.25" stroke-linecap="round" stroke-linejoin="round"/>
<path d="M32.0565 16.5419L25.2078 14.5151L27.2246 17.6509L24.1732 23.7016L28.2891 23.6516H34.3965L32.0565 16.5419Z" fill="#F5841F" stroke="#F5841F" stroke-width="0.25" stroke-linecap="round" stroke-linejoin="round"/>
<path d="M10.4021 14.5151L3.76432 16.5419L1.2207 23.6516H7.32821L11.4351 23.7016L8.30225 17.6509L10.4021 14.5151Z" fill="#F5841F" stroke="#F5841F" stroke-width="0.25" stroke-linecap="round" stroke-linejoin="round"/>
<path d="M19.8242 17.9897L20.3528 10.3875L22.2671 4.99097H13.3477L15.4677 10.3875L15.7025 17.9897L15.8813 20.3694L15.8892 26.2858H19.6373L19.6452 20.3694L19.8242 17.9897Z" fill="#F5841F" stroke="#F5841F" stroke-width="0.25" stroke-linecap="round" stroke-linejoin="round"/>
</svg> 